<svg xmlns="http://www.w3.org/2000/svg" width="32" height="32" fill="none" viewBox="0 0 32 32">
    <g class="Group 1">
        <g class="ri:road-map-fill">
            <path fill="#545454" d="M22.014 15.393a7.72 7.72 0 0 0 2.05-7.263l2.753-1.18a.552.552 0 0 1 .77.507v15.715l-7.725 3.31-6.62-3.31-6.956 2.98a.552.552 0 0 1-.769-.507V9.931l3.453-1.48a7.716 7.716 0 0 0 2.12 6.941l5.462 5.463 5.462-5.462Zm-1.56-1.56-3.902 3.9-3.902-3.901a5.517 5.517 0 1 1 7.803 0Z" class="Vector"/>
        </g>
        <circle cx="16" cy="16" r="15.5" stroke="#545454" class="Ellipse 1"/>
    </g>
</svg>
